<svg xmlns="http://www.w3.org/2000/svg" viewBox="0 0 317.67 214.4"><defs><linearGradient id="a" y1="142.7" x2="143.68" y2="142.7" gradientUnits="userSpaceOnUse"><stop offset="0" stop-color="#0857c3"/><stop offset="1" stop-color="#656bff"/></linearGradient></defs><path d="M131.55 51.49l40.84 50.15h11.32V27.58h-13.65v50.15l-40.84-50.15H117.9v74.06h13.65V51.49zM224.69 27.81v50q0 13.44-11.36 13.45-8.45 0-14.48-8.34l-7.71 9.27a25 25 0 009.64 7.76 29.91 29.91 0 0012.87 2.76q12.07 0 18.33-6.41t6.25-19.21l.68-49.48M316.74 93.41V64.35h-12.82v22.71a29.33 29.33 0 01-15 3.75 27.44 27.44 0 01-13.6-3.34 24.2 24.2 0 01-9.32-9.16 25.66 25.66 0 01-3.39-13.13A26 26 0 01266 51.85a23.57 23.57 0 019.37-9.07A28.48 28.48 0 01289 39.55a27.4 27.4 0 0120.1 8.34l8.54-8.34a32.61 32.61 0 00-12.6-8.85 44.33 44.33 0 00-16.67-3 42.07 42.07 0 00-20.26 4.84A35.91 35.91 0 00254 45.91a36.86 36.86 0 00-5.1 19.27 36.86 36.86 0 005.1 19.27 36 36 0 0014.06 13.39 41.62 41.62 0 0020.11 4.84 50.28 50.28 0 0015.42-2.39 40.75 40.75 0 0013.15-6.88z"/><path d="M177.9 117.72a62.83 62.83 0 11-.27-103.84" fill="none" stroke="#000" stroke-miterlimit="10" stroke-width="6.13"/><path d="M64.66 71a71.88 71.88 0 1079 74.14 80.5 80.5 0 01-79-74.14z" fill="url(#a)"/><circle cx="177.44" cy="121.28" r="9.5"/></svg>