<svg xmlns="http://www.w3.org/2000/svg" width="57.27" height="57.373"><path d="M35.017 12.018A12.951 12.951 0 0145.249 22.25M35.017 1.656c10.827 1.203 19.378 9.743 20.594 20.568m-2.59 20.672v7.771a5.18 5.18 0 01-5.647 5.181 51.257 51.257 0 01-22.355-7.953A50.512 50.512 0 019.475 32.356 51.271 51.271 0 011.523 9.894a5.18 5.18 0 015.155-5.648h7.771a5.18 5.18 0 015.185 4.456 33.26 33.26 0 001.813 7.279 5.18 5.18 0 01-1.166 5.466l-3.29 3.29a41.448 41.448 0 0015.543 15.542l3.29-3.29a5.18 5.18 0 015.466-1.166 33.26 33.26 0 007.279 1.813 5.18 5.18 0 014.452 5.26z" fill="none" stroke="#000" stroke-linecap="round" stroke-linejoin="round" stroke-width="3"/></svg>